<svg width="48" height="49" viewBox="0 0 48 49" fill="none" xmlns="http://www.w3.org/2000/svg">
<path d="M39.8 42.45L26.65 29.3C25.65 30.1667 24.484 30.8417 23.1521 31.325C21.8201 31.8083 20.4027 32.05 18.9 32.05C15.2946 32.05 12.2433 30.8 9.74595 28.3C7.24865 25.8 6 22.7833 6 19.25C6 15.7167 7.25 12.7 9.75 10.2C12.25 7.70001 15.275 6.45001 18.825 6.45001C22.375 6.45001 25.3917 7.70001 27.875 10.2C30.3583 12.7 31.6 15.7192 31.6 19.2575C31.6 20.6858 31.3667 22.0667 30.9 23.4C30.4333 24.7333 29.7333 25.9833 28.8 27.15L42 40.25L39.8 42.45ZM18.85 29.05C21.5583 29.05 23.8604 28.0917 25.7563 26.175C27.6521 24.2583 28.6 21.95 28.6 19.25C28.6 16.55 27.6521 14.2417 25.7563 12.325C23.8604 10.4083 21.5583 9.45001 18.85 9.45001C16.1139 9.45001 13.7882 10.4083 11.8729 12.325C9.95763 14.2417 9 16.55 9 19.25C9 21.95 9.95763 24.2583 11.8729 26.175C13.7882 28.0917 16.1139 29.05 18.85 29.05Z" fill="white"/>
</svg>
